<?xml version="1.0" encoding="UTF-8" standalone="no"?>
<!-- Created with Inkscape (http://www.inkscape.org/) -->

<svg
   xmlns:dc="http://purl.org/dc/elements/1.1/"
   xmlns:cc="http://creativecommons.org/ns#"
   xmlns:rdf="http://www.w3.org/1999/02/22-rdf-syntax-ns#"
   xmlns:svg="http://www.w3.org/2000/svg"
   xmlns="http://www.w3.org/2000/svg"
   xmlns:sodipodi="http://sodipodi.sourceforge.net/DTD/sodipodi-0.dtd"
   xmlns:inkscape="http://www.inkscape.org/namespaces/inkscape"
   width="100"
   height="30.5"
   viewBox="0 0 100.00001 30.5"
   id="svg2"
   version="1.1"
   inkscape:version="0.91 r13725"
   sodipodi:docname="christina-page-logo-inverse.svg"
   inkscape:export-filename="/Users/clone/Desktop/christina-logo-bg.png"
   inkscape:export-xdpi="90"
   inkscape:export-ydpi="90">
  <defs
     id="defs4" />
  <sodipodi:namedview
     id="base"
     pagecolor="#ffffff"
     bordercolor="#666666"
     borderopacity="1.0"
     inkscape:pageopacity="0.0"
     inkscape:pageshadow="2"
     inkscape:zoom="6.036118"
     inkscape:cx="65.116294"
     inkscape:cy="9.6609563"
     inkscape:document-units="px"
     inkscape:current-layer="layer1"
     showgrid="false"
     inkscape:window-width="1280"
     inkscape:window-height="730"
     inkscape:window-x="0"
     inkscape:window-y="1"
     inkscape:window-maximized="1"
     units="px"
     showguides="false" />
  <metadata
     id="metadata7">
    <rdf:RDF>
      <cc:Work
         rdf:about="">
        <dc:format>image/svg+xml</dc:format>
        <dc:type
           rdf:resource="http://purl.org/dc/dcmitype/StillImage" />
        <dc:title />
      </cc:Work>
    </rdf:RDF>
  </metadata>
  <g
     inkscape:label="Layer 1"
     inkscape:groupmode="layer"
     id="layer1"
     transform="translate(0,-1021.8623)">
    <text
       xml:space="preserve"
       style="font-style:normal;font-weight:normal;font-size:40px;line-height:125%;font-family:sans-serif;letter-spacing:0px;word-spacing:0px;fill:#000000;fill-opacity:1;stroke:none;stroke-width:1px;stroke-linecap:butt;stroke-linejoin:miter;stroke-opacity:1"
       x="472.70087"
       y="979.53021"
       id="text4312"
       sodipodi:linespacing="125%"><tspan
         sodipodi:role="line"
         id="tspan4314"
         x="472.70087"
         y="979.53021" /></text>
    <text
       xml:space="preserve"
       style="font-style:normal;font-weight:normal;font-size:40px;line-height:125%;font-family:sans-serif;letter-spacing:0px;word-spacing:0px;fill:#000000;fill-opacity:1;stroke:none;stroke-width:1px;stroke-linecap:butt;stroke-linejoin:miter;stroke-opacity:1"
       x="486.84302"
       y="970.33783"
       id="text4346"
       sodipodi:linespacing="125%"><tspan
         sodipodi:role="line"
         id="tspan4348"
         x="486.84302"
         y="970.33783" /></text>
    <text
       xml:space="preserve"
       style="font-style:normal;font-weight:normal;font-size:40px;line-height:125%;font-family:sans-serif;letter-spacing:0px;word-spacing:0px;fill:#000000;fill-opacity:1;stroke:none;stroke-width:1px;stroke-linecap:butt;stroke-linejoin:miter;stroke-opacity:1"
       x="1188.8232"
       y="855.2561"
       id="text4625"
       sodipodi:linespacing="125%"><tspan
         sodipodi:role="line"
         id="tspan4627"
         x="1188.8232"
         y="855.2561" /></text>
    <path
       style="fill:none;fill-opacity:1;stroke:#231437;stroke-width:0.50890303;stroke-linecap:round;stroke-linejoin:round;stroke-miterlimit:4;stroke-dasharray:none;stroke-opacity:1"
       d="m 94.521086,1035.1082 c 0,0 0.258841,1.6203 0.676139,2.175 0.417298,0.5547 1.636223,0.8988 1.636223,0.8988 0,0 -1.218925,0.344 -1.636223,0.8987 -0.417298,0.5547 -0.676139,2.175 -0.676139,2.175 0,0 -0.258884,-1.6203 -0.676079,-2.175 -0.417328,-0.5546 -1.636209,-0.8987 -1.636209,-0.8987 0,0 1.218881,-0.3441 1.636209,-0.8988 0.417195,-0.5547 0.676079,-2.175 0.676079,-2.175 z"
       id="path4983"
       inkscape:connector-curvature="0"
       sodipodi:nodetypes="cscscscsc"
       inkscape:export-filename="/Users/clone/Desktop/christina-logo-test.png"
       inkscape:export-xdpi="90.479698"
       inkscape:export-ydpi="90.479698" />
    <path
       sodipodi:nodetypes="cscscscsc"
       inkscape:connector-curvature="0"
       id="path4985"
       d="m 97.069994,1027.6114 c 0,0 0.25887,1.6202 0.676183,2.1749 0.417283,0.5547 1.636179,0.8988 1.636179,0.8988 0,0 -1.218896,0.3441 -1.636179,0.8988 -0.417313,0.5547 -0.676183,2.1749 -0.676183,2.1749 0,0 -0.258855,-1.6202 -0.676079,-2.1749 -0.417284,-0.5547 -1.636209,-0.8988 -1.636209,-0.8988 0,0 1.218925,-0.3441 1.636209,-0.8988 0.417224,-0.5547 0.676079,-2.1749 0.676079,-2.1749 z"
       style="fill:none;fill-opacity:1;stroke:#231437;stroke-width:0.50890303;stroke-linecap:round;stroke-linejoin:round;stroke-miterlimit:4;stroke-dasharray:none;stroke-opacity:1"
       inkscape:export-filename="/Users/clone/Desktop/christina-logo-test.png"
       inkscape:export-xdpi="90.479698"
       inkscape:export-ydpi="90.479698" />
    <path
       style="fill:none;fill-opacity:1;stroke:#231437;stroke-width:0.67853737;stroke-linecap:round;stroke-linejoin:round;stroke-miterlimit:4;stroke-dasharray:none;stroke-opacity:1"
       d="m 88.3737,1029.0354 c 0,0 0.368367,2.3054 0.962073,3.0947 0.593736,0.7892 2.328074,1.2788 2.328074,1.2788 0,0 -1.734338,0.4896 -2.328074,1.2789 -0.593795,0.7892 -0.962073,3.0946 -0.962073,3.0946 0,0 -0.368366,-2.3054 -0.962087,-3.0946 -0.593736,-0.7893 -2.328133,-1.2789 -2.328133,-1.2789 0,0 1.734397,-0.4896 2.328133,-1.2788 0.593721,-0.7893 0.962087,-3.0947 0.962087,-3.0947 z"
       id="path4987"
       inkscape:connector-curvature="0"
       sodipodi:nodetypes="cscscscsc"
       inkscape:export-filename="/Users/clone/Desktop/christina-logo-test.png"
       inkscape:export-xdpi="90.479698"
       inkscape:export-ydpi="90.479698" />
    <g
       style="font-style:normal;font-weight:normal;font-size:48.75663757px;line-height:125%;font-family:sans-serif;letter-spacing:0px;word-spacing:0px;fill:#231437;fill-opacity:1;stroke:#231437;stroke-width:1.21891594px;stroke-linecap:butt;stroke-linejoin:miter;stroke-opacity:1"
       id="text4989"
       inkscape:export-filename="/Users/clone/Desktop/christina-logo-test.png"
       inkscape:export-xdpi="90.479698"
       inkscape:export-ydpi="90.479698"
       transform="matrix(0.84817164,0,0,0.84817164,-1473.3062,380.29685)">
      <g
         id="g5006"
         style="stroke:#231437;stroke-opacity:1;fill:#231437;fill-opacity:1">
        <path
           inkscape:connector-curvature="0"
           id="path5000"
           style="font-style:normal;font-variant:normal;font-weight:normal;font-stretch:normal;font-family:'DS Gabriele';-inkscape-font-specification:'DS Gabriele';letter-spacing:-1.97464406px;fill:#231437;fill-opacity:1;stroke:#231437;stroke-width:1.21891594px;stroke-opacity:1"
           d="m 1779.1792,775.21865 q 0.049,0.73135 -1.0238,1.75524 -0.9752,0.97513 -1.8528,1.36518 -0.6338,0.24379 -3.413,0.87762 l -2.6328,8.23987 q -0.1463,0.53633 -0.1463,0.87762 0,0.58508 0.5363,0.58508 1.2677,0 4.6807,-2.82788 l 0.7313,0.58508 q -0.8288,0.63383 -2.0478,1.60897 -1.1701,0.92637 -2.8278,2.19404 -1.414,1.02389 -2.8279,1.02389 -2.0966,0 -2.0966,-1.99902 0,-0.24378 0.097,-0.73135 l 2.7304,-9.75133 -7.2647,0 q -3.803,4.43686 -6.4359,6.63091 -6.8747,5.55825 -12.628,5.65577 -2.0477,0 -3.3642,-1.07265 -1.3164,-1.1214 -1.3164,-3.07167 -0.097,-4.8269 6.4359,-8.14236 5.4607,-2.73037 10.7752,-2.73037 l 5.8508,0 q 4.0468,-5.07069 6.8259,-12.09164 2.8279,-1.60897 3.1692,-1.60897 0.2925,0 0.2925,0.39005 0,0.3413 -0.2437,1.07265 l -7.216,12.4817 6.0946,0 q 0,-0.29254 4.3393,-13.70062 0.1463,-0.43881 0.1463,-0.87762 0,-1.60897 -1.219,-1.60897 -1.7064,0 -4.6806,0.92638 -2.9741,0.92637 -2.6816,0.92637 -0.4876,0 -0.4876,-0.4388 0,-0.24379 3.1692,-3.70551 2.7791,-0.78011 4.8269,-0.78011 4.7782,0 4.7782,3.55924 0,0.39005 -0.097,0.78011 -4.4369,14.04191 -4.4369,14.91953 1.5115,0.0488 2.6816,-0.48757 0.097,-0.0488 0.6826,-0.39005 0.6338,-0.39006 1.7552,-1.12141 0.098,0.0975 0.1463,0.29254 0.097,0.14627 0.195,0.39006 z m -27.4499,3.46172 q -3.7543,-0.0975 -6.6309,1.31643 -3.5593,1.75524 -3.5593,5.21696 0,0.82886 0.3901,1.51145 0.39,0.63384 1.0239,1.12141 0.6338,0.48756 1.4139,0.73135 0.8289,0.24378 1.7065,0.24378 5.9483,0 13.213,-9.94636 l -7.5572,-0.19502 z" />
        <path
           sodipodi:nodetypes="ccccsc"
           inkscape:connector-curvature="0"
           id="path5002"
           d="m 1278.9441,1437.5575 c 0,0.1938 -0.4022,0.4202 -0.7459,0.4202 -0.3436,0 -0.6222,-0.1571 -0.6222,-0.3509 0,-0.1938 0.4021,-0.4202 0.7458,-0.4202 0.1718,0 0.3274,0.039 0.44,0.1028 0.1126,0.063 0.1823,0.1512 0.1823,0.2481 z"
           style="fill:#231437;fill-opacity:1;stroke:#231437;stroke-width:0.10416688;stroke-linecap:round;stroke-linejoin:round;stroke-miterlimit:4;stroke-dasharray:none;stroke-opacity:1"
           transform="matrix(0.90622605,-0.42279351,0.42279347,0.90622607,0,0)" />
      </g>
    </g>
    <text
       xml:space="preserve"
       style="font-style:normal;font-weight:normal;font-size:33.92686462px;line-height:125%;font-family:sans-serif;letter-spacing:0px;word-spacing:0px;fill:#231437;fill-opacity:1;stroke:none;stroke-width:0.15000001;stroke-linecap:butt;stroke-linejoin:miter;stroke-miterlimit:4;stroke-dasharray:none;stroke-opacity:1;"
       x="36.172993"
       y="1046.267"
       id="text4993"
       sodipodi:linespacing="125%"
       inkscape:export-xdpi="90.479698"
       inkscape:export-ydpi="90.479698"
       inkscape:export-filename="/Users/clone/Desktop/christina-logo-test.png"><tspan
         sodipodi:role="line"
         id="tspan4995"
         x="36.172993"
         y="1046.267"
         style="font-style:normal;font-variant:normal;font-weight:normal;font-stretch:normal;font-family:Rumburak;-inkscape-font-specification:Rumburak;fill:#231437;fill-opacity:1;stroke:none;stroke-width:0.15000001;stroke-miterlimit:4;stroke-dasharray:none;stroke-opacity:1;">r<tspan
   style="letter-spacing:-0.68701911px;fill:#231437;fill-opacity:1;stroke:none;stroke-width:0.15000001;stroke-miterlimit:4;stroke-dasharray:none;stroke-opacity:1;"
   id="tspan4997">e</tspan>wa</tspan></text>
  </g>
</svg>
