<?xml version="1.0" encoding="UTF-8" standalone="no"?>
<!-- Created with Inkscape (http://www.inkscape.org/) -->

<svg
   xmlns:dc="http://purl.org/dc/elements/1.1/"
   xmlns:cc="http://creativecommons.org/ns#"
   xmlns:rdf="http://www.w3.org/1999/02/22-rdf-syntax-ns#"
   xmlns:svg="http://www.w3.org/2000/svg"
   xmlns="http://www.w3.org/2000/svg"
   xmlns:sodipodi="http://sodipodi.sourceforge.net/DTD/sodipodi-0.dtd"
   xmlns:inkscape="http://www.inkscape.org/namespaces/inkscape"
   width="100"
   height="30.5"
   viewBox="0 0 100.00001 30.5"
   id="svg2"
   version="1.1"
   inkscape:version="0.91 r13725"
   sodipodi:docname="christina-page-logo.svg"
   inkscape:export-filename="/Users/clone/Desktop/christina-logo-bg.png"
   inkscape:export-xdpi="90"
   inkscape:export-ydpi="90">
  <defs
     id="defs4" />
  <sodipodi:namedview
     id="base"
     pagecolor="#ffffff"
     bordercolor="#666666"
     borderopacity="1.0"
     inkscape:pageopacity="0.0"
     inkscape:pageshadow="2"
     inkscape:zoom="6.036118"
     inkscape:cx="51.779908"
     inkscape:cy="36.168059"
     inkscape:document-units="px"
     inkscape:current-layer="layer1"
     showgrid="false"
     inkscape:window-width="1280"
     inkscape:window-height="730"
     inkscape:window-x="0"
     inkscape:window-y="1"
     inkscape:window-maximized="1"
     units="px"
     showguides="false" />
  <metadata
     id="metadata7">
    <rdf:RDF>
      <cc:Work
         rdf:about="">
        <dc:format>image/svg+xml</dc:format>
        <dc:type
           rdf:resource="http://purl.org/dc/dcmitype/StillImage" />
        <dc:title></dc:title>
      </cc:Work>
    </rdf:RDF>
  </metadata>
  <g
     inkscape:label="Layer 1"
     inkscape:groupmode="layer"
     id="layer1"
     transform="translate(0,-1021.8623)">
    <text
       xml:space="preserve"
       style="font-style:normal;font-weight:normal;font-size:40px;line-height:125%;font-family:sans-serif;letter-spacing:0px;word-spacing:0px;fill:#000000;fill-opacity:1;stroke:none;stroke-width:1px;stroke-linecap:butt;stroke-linejoin:miter;stroke-opacity:1"
       x="472.70087"
       y="979.53021"
       id="text4312"
       sodipodi:linespacing="125%"><tspan
         sodipodi:role="line"
         id="tspan4314"
         x="472.70087"
         y="979.53021" /></text>
    <text
       xml:space="preserve"
       style="font-style:normal;font-weight:normal;font-size:40px;line-height:125%;font-family:sans-serif;letter-spacing:0px;word-spacing:0px;fill:#000000;fill-opacity:1;stroke:none;stroke-width:1px;stroke-linecap:butt;stroke-linejoin:miter;stroke-opacity:1"
       x="486.84302"
       y="970.33783"
       id="text4346"
       sodipodi:linespacing="125%"><tspan
         sodipodi:role="line"
         id="tspan4348"
         x="486.84302"
         y="970.33783" /></text>
    <text
       xml:space="preserve"
       style="font-style:normal;font-weight:normal;font-size:40px;line-height:125%;font-family:sans-serif;letter-spacing:0px;word-spacing:0px;fill:#000000;fill-opacity:1;stroke:none;stroke-width:1px;stroke-linecap:butt;stroke-linejoin:miter;stroke-opacity:1"
       x="1188.8232"
       y="855.2561"
       id="text4625"
       sodipodi:linespacing="125%"><tspan
         sodipodi:role="line"
         id="tspan4627"
         x="1188.8232"
         y="855.2561" /></text>
    <g
       id="g4319"
       transform="matrix(0.1472523,0,0,0.1472523,-124.96767,990.72678)">
      <path
         inkscape:export-ydpi="90.479698"
         inkscape:export-xdpi="90.479698"
         inkscape:export-filename="/Users/clone/Desktop/christina-logo-test.png"
         sodipodi:nodetypes="cscscscsc"
         inkscape:connector-curvature="0"
         id="path4983"
         d="m 1490.5625,301.39711 c 0,0 1.7578,11.00331 4.5917,14.77034 2.8339,3.76704 11.1117,6.10385 11.1117,6.10385 0,0 -8.2778,2.33625 -11.1117,6.10329 -2.8339,3.76703 -4.5917,14.77034 -4.5917,14.77034 0,0 -1.7581,-11.00331 -4.5913,-14.77034 -2.8341,-3.76646 -11.1116,-6.10329 -11.1116,-6.10329 0,0 8.2775,-2.33681 11.1116,-6.10385 2.8332,-3.76703 4.5913,-14.77034 4.5913,-14.77034 z"
         style="fill:none;fill-opacity:1;stroke:#ccccff;stroke-width:3.45599365;stroke-linecap:round;stroke-linejoin:round;stroke-miterlimit:4;stroke-dasharray:none;stroke-opacity:1" />
      <path
         inkscape:export-ydpi="90.479698"
         inkscape:export-xdpi="90.479698"
         inkscape:export-filename="/Users/clone/Desktop/christina-logo-test.png"
         style="fill:none;fill-opacity:1;stroke:#ccccff;stroke-width:3.45599365;stroke-linecap:round;stroke-linejoin:round;stroke-miterlimit:4;stroke-dasharray:none;stroke-opacity:1"
         d="m 1507.8723,250.48572 c 0,0 1.758,11.00329 4.592,14.77034 2.8338,3.76646 11.1114,6.10329 11.1114,6.10329 0,0 -8.2776,2.33681 -11.1114,6.10384 -2.834,3.76704 -4.592,14.76977 -4.592,14.76977 0,0 -1.7579,-11.00273 -4.5913,-14.76977 -2.8338,-3.76703 -11.1116,-6.10384 -11.1116,-6.10384 0,0 8.2778,-2.33683 11.1116,-6.10329 2.8334,-3.76705 4.5913,-14.77034 4.5913,-14.77034 z"
         id="path4985"
         inkscape:connector-curvature="0"
         sodipodi:nodetypes="cscscscsc" />
      <path
         inkscape:export-ydpi="90.479698"
         inkscape:export-xdpi="90.479698"
         inkscape:export-filename="/Users/clone/Desktop/christina-logo-test.png"
         sodipodi:nodetypes="cscscscsc"
         inkscape:connector-curvature="0"
         id="path4987"
         d="m 1448.8152,260.15617 c 0,0 2.5016,15.65622 6.5335,21.01646 4.0321,5.35966 15.8101,8.68433 15.8101,8.68433 0,0 -11.778,3.32525 -15.8101,8.68492 -4.0325,5.35967 -6.5335,21.01589 -6.5335,21.01589 0,0 -2.5016,-15.65622 -6.5336,-21.01589 -4.0321,-5.35967 -15.8105,-8.68492 -15.8105,-8.68492 0,0 11.7784,-3.32467 15.8105,-8.68433 4.032,-5.36024 6.5336,-21.01646 6.5336,-21.01646 z"
         style="fill:none;fill-opacity:1;stroke:#ccccff;stroke-width:4.6079917;stroke-linecap:round;stroke-linejoin:round;stroke-miterlimit:4;stroke-dasharray:none;stroke-opacity:1" />
      <g
         transform="matrix(5.7599891,0,0,5.7599891,-9156.655,-4145.4696)"
         inkscape:export-ydpi="90.479698"
         inkscape:export-xdpi="90.479698"
         inkscape:export-filename="/Users/clone/Desktop/christina-logo-test.png"
         id="text4989"
         style="font-style:normal;font-weight:normal;font-size:48.75663757px;line-height:125%;font-family:sans-serif;letter-spacing:0px;word-spacing:0px;fill:#000000;fill-opacity:1;stroke:#ffdf0b;stroke-width:1.21891594px;stroke-linecap:butt;stroke-linejoin:miter;stroke-opacity:1">
        <g
           id="g5006">
          <path
             d="m 1779.1792,775.21865 q 0.049,0.73135 -1.0238,1.75524 -0.9752,0.97513 -1.8528,1.36518 -0.6338,0.24379 -3.413,0.87762 l -2.6328,8.23987 q -0.1463,0.53633 -0.1463,0.87762 0,0.58508 0.5363,0.58508 1.2677,0 4.6807,-2.82788 l 0.7313,0.58508 q -0.8288,0.63383 -2.0478,1.60897 -1.1701,0.92637 -2.8278,2.19404 -1.414,1.02389 -2.8279,1.02389 -2.0966,0 -2.0966,-1.99902 0,-0.24378 0.097,-0.73135 l 2.7304,-9.75133 -7.2647,0 q -3.803,4.43686 -6.4359,6.63091 -6.8747,5.55825 -12.628,5.65577 -2.0477,0 -3.3642,-1.07265 -1.3164,-1.1214 -1.3164,-3.07167 -0.097,-4.8269 6.4359,-8.14236 5.4607,-2.73037 10.7752,-2.73037 l 5.8508,0 q 4.0468,-5.07069 6.8259,-12.09164 2.8279,-1.60897 3.1692,-1.60897 0.2925,0 0.2925,0.39005 0,0.3413 -0.2437,1.07265 l -7.216,12.4817 6.0946,0 q 0,-0.29254 4.3393,-13.70062 0.1463,-0.43881 0.1463,-0.87762 0,-1.60897 -1.219,-1.60897 -1.7064,0 -4.6806,0.92638 -2.9741,0.92637 -2.6816,0.92637 -0.4876,0 -0.4876,-0.4388 0,-0.24379 3.1692,-3.70551 2.7791,-0.78011 4.8269,-0.78011 4.7782,0 4.7782,3.55924 0,0.39005 -0.097,0.78011 -4.4369,14.04191 -4.4369,14.91953 1.5115,0.0488 2.6816,-0.48757 0.097,-0.0488 0.6826,-0.39005 0.6338,-0.39006 1.7552,-1.12141 0.098,0.0975 0.1463,0.29254 0.097,0.14627 0.195,0.39006 z m -27.4499,3.46172 q -3.7543,-0.0975 -6.6309,1.31643 -3.5593,1.75524 -3.5593,5.21696 0,0.82886 0.3901,1.51145 0.39,0.63384 1.0239,1.12141 0.6338,0.48756 1.4139,0.73135 0.8289,0.24378 1.7065,0.24378 5.9483,0 13.213,-9.94636 l -7.5572,-0.19502 z"
             style="font-style:normal;font-variant:normal;font-weight:normal;font-stretch:normal;font-family:'DS Gabriele';-inkscape-font-specification:'DS Gabriele';letter-spacing:-1.97464406px;fill:#ccccff;fill-opacity:1;stroke:#ccccff;stroke-width:1.21891594px;stroke-opacity:1"
             id="path5000"
             inkscape:connector-curvature="0" />
          <path
             transform="matrix(0.90622605,-0.42279351,0.42279347,0.90622607,0,0)"
             style="fill:#ccccff;fill-opacity:1;stroke:none;stroke-width:0.10416688;stroke-linecap:round;stroke-linejoin:round;stroke-miterlimit:4;stroke-dasharray:none;stroke-opacity:1"
             d="m 1278.9441,1437.5575 c 0,0.1938 -0.4022,0.4202 -0.7459,0.4202 -0.3436,0 -0.6222,-0.1571 -0.6222,-0.3509 0,-0.1938 0.4021,-0.4202 0.7458,-0.4202 0.1718,0 0.3274,0.039 0.44,0.1028 0.1126,0.063 0.1823,0.1512 0.1823,0.2481 z"
             id="path5002"
             inkscape:connector-curvature="0"
             sodipodi:nodetypes="ccccsc" />
        </g>
      </g>
      <text
         inkscape:export-filename="/Users/clone/Desktop/christina-logo-test.png"
         inkscape:export-ydpi="90.479698"
         inkscape:export-xdpi="90.479698"
         sodipodi:linespacing="125%"
         id="text4993"
         y="377.17691"
         x="1094.3168"
         style="font-style:normal;font-weight:normal;font-size:230.39956665px;line-height:125%;font-family:sans-serif;letter-spacing:0px;word-spacing:0px;fill:#ffdf0b;fill-opacity:1;stroke:none;stroke-width:0.15000001;stroke-linecap:butt;stroke-linejoin:miter;stroke-miterlimit:4;stroke-dasharray:none;stroke-opacity:1"
         xml:space="preserve"><tspan
           style="font-style:normal;font-variant:normal;font-weight:normal;font-stretch:normal;font-family:Rumburak;-inkscape-font-specification:Rumburak;fill:#ccccff;fill-opacity:1;stroke:none;stroke-width:0.15000001;stroke-miterlimit:4;stroke-dasharray:none;stroke-opacity:1"
           y="377.17691"
           x="1094.3168"
           id="tspan4995"
           sodipodi:role="line">r<tspan
   id="tspan4997"
   style="letter-spacing:-4.66559172px;fill:#ccccff;fill-opacity:1;stroke:none;stroke-width:0.15000001;stroke-miterlimit:4;stroke-dasharray:none;stroke-opacity:1">e</tspan>wa</tspan></text>
    </g>
  </g>
</svg>
